<svg xmlns="http://www.w3.org/2000/svg" width="16" height="16" viewBox="0 0 16 16">
  <path id="Path_1" data-name="Path 1" d="M289.875,381h-9.75a3.11,3.11,0,0,1-1.747-.534,3.134,3.134,0,0,1-1.132-1.375,3.106,3.106,0,0,1-.246-1.216v-9.75a3.11,3.11,0,0,1,.534-1.747,3.135,3.135,0,0,1,1.375-1.132,3.106,3.106,0,0,1,1.216-.246h9.75a3.11,3.11,0,0,1,1.747.534,3.134,3.134,0,0,1,1.132,1.375,3.105,3.105,0,0,1,.246,1.216v9.75a3.11,3.11,0,0,1-.534,1.747,3.135,3.135,0,0,1-1.375,1.132A3.106,3.106,0,0,1,289.875,381ZM285,371.438A1.563,1.563,0,1,0,286.563,373,1.564,1.564,0,0,0,285,371.438Zm3.281.469A1.094,1.094,0,1,0,289.375,373,1.095,1.095,0,0,0,288.281,371.907Zm-6.563,0A1.094,1.094,0,1,0,282.813,373,1.095,1.095,0,0,0,281.719,371.907Z" transform="translate(-277 -365)"/>
</svg>
